HIERARCHY
ROOT lpalm
{
	OFFSET	0.000000	0.000000	0.000000
	CHANNELS	6	Xposition	Yposition	Zposition	Zrotation	Xrotation	Yrotation
	JOINT lthumbA
	{
		OFFSET	-6.570000	-2.200000	3.500000
		CHANNELS	3	Zrotation	Xrotation	Yrotation
		JOINT lthumbB
		{
			OFFSET	0.000000	0.000000	7.000000
			CHANNELS	3	Zrotation	Xrotation	Yrotation
			JOINT lthumbC
			{
				OFFSET	0.000000	0.000000	3.800000
				CHANNELS	3	Zrotation	Xrotation	Yrotation
				End Site
				{
					OFFSET	0.000000	0.000000	3.000000
				}
			}
		}
	}
	JOINT lindexA
	{
		OFFSET	-2.730000	0.000000	10.400000
		CHANNELS	3	Zrotation	Xrotation	Yrotation
		JOINT lindexB
		{
			OFFSET	0.000000	0.000000	4.600000
			CHANNELS	3	Zrotation	Xrotation	Yrotation
			JOINT lindexC
			{
				OFFSET	0.000000	0.000000	3.000000
				CHANNELS	3	Zrotation	Xrotation	Yrotation
				End Site
				{
					OFFSET	0.000000	0.000000	2.600000
				}
			}
		}
	}
	JOINT lmiddleA
	{
		OFFSET	-0.610000	0.000000	10.000000
		CHANNELS	3	Zrotation	Xrotation	Yrotation
		JOINT lmiddleB
		{
			OFFSET	0.000000	0.000000	5.100000
			CHANNELS	3	Zrotation	Xrotation	Yrotation
			JOINT lmiddleC
			{
				OFFSET	0.000000	0.000000	3.100000
				CHANNELS	3	Zrotation	Xrotation	Yrotation
				End Site
				{
					OFFSET	0.000000	0.000000	2.800000
				}
			}
		}
	}
	JOINT lringA
	{
		OFFSET	1.880000	0.000000	9.700000
		CHANNELS	3	Zrotation	Xrotation	Yrotation
		JOINT lringB
		{
			OFFSET	0.000000	0.000000	4.800000
			CHANNELS	3	Zrotation	Xrotation	Yrotation
			JOINT lringC
			{
				OFFSET	0.000000	0.000000	3.000000
				CHANNELS	3	Zrotation	Xrotation	Yrotation
				End Site
				{
					OFFSET	0.000000	0.000000	2.700000
				}
			}
		}
	}
	JOINT llittleA
	{
		OFFSET	3.540000	0.000000	8.600000
		CHANNELS	3	Zrotation	Xrotation	Yrotation
		JOINT llittleB
		{
			OFFSET	0.000000	0.000000	3.800000
			CHANNELS	3	Zrotation	Xrotation	Yrotation
			JOINT llittleC
			{
				OFFSET	0.000000	0.000000	2.300000
				CHANNELS	3	Zrotation	Xrotation	Yrotation
				End Site
				{
					OFFSET	0.000000	0.000000	2.400000
				}
			}
		}
	}
}
MOTION
Frames:	32
Frame Time:	0.013582
0.00	0.00	0.00	0.70	15.96	-2.44	-8.18	-5.07	-26.77	-15.00	-0.04	0.15	0.00	0.00	10.76	0.00	1.86	-12.23	0.00	15.08	0.00	0.00	1.43	0.00	0.00	10.80	0.48	0.00	14.55	0.00	0.00	1.29	0.00	0.00	6.58	6.58	0.00	17.68	0.00	0.00	0.21	0.00	0.00	18.63	6.69	0.00	20.36	0.00	0.00	0.00	0.00
0.00	0.00	0.00	0.70	16.02	-2.44	-8.36	-5.18	-26.72	-15.00	-0.03	0.13	0.00	0.00	10.78	0.00	1.74	-12.24	0.00	15.08	0.00	0.00	1.40	0.00	0.00	10.76	0.50	0.00	14.58	0.00	0.00	1.29	0.00	0.00	6.59	6.61	0.00	17.71	0.00	0.00	0.23	0.00	0.00	18.57	6.69	0.00	20.34	0.00	0.00	0.00	0.00
0.00	0.00	0.00	0.70	15.99	-2.43	-8.33	-5.16	-26.73	-15.00	-0.05	0.17	0.00	0.00	10.78	0.00	1.82	-12.24	0.00	15.08	0.00	0.00	1.42	0.00	0.00	10.78	0.50	0.00	14.57	0.00	0.00	1.29	0.00	0.00	6.58	6.60	0.00	17.66	0.00	0.00	0.23	0.00	0.00	18.59	6.69	0.00	20.36	0.00	0.00	0.00	0.00
0.00	0.00	0.00	0.70	15.99	-2.43	-8.33	-5.16	-26.73	-15.00	-0.05	0.17	0.00	0.00	10.78	0.00	1.82	-12.24	0.00	15.08	0.00	0.00	1.42	0.00	0.00	10.78	0.50	0.00	14.57	0.00	0.00	1.29	0.00	0.00	6.58	6.60	0.00	17.66	0.00	0.00	0.23	0.00	0.00	18.59	6.69	0.00	20.36	0.00	0.00	0.00	0.00
0.00	0.00	0.00	0.70	16.00	-2.43	-8.30	-5.14	-26.78	-15.00	-0.05	0.17	0.00	0.00	10.77	0.00	1.84	-12.26	0.00	15.08	0.00	0.00	1.38	0.00	0.00	10.78	0.50	0.00	14.64	0.00	0.00	1.29	0.00	0.00	6.57	6.60	0.00	17.71	0.00	0.00	0.23	0.00	0.00	18.57	6.68	0.00	20.36	0.00	0.00	0.00	0.00
0.00	0.00	0.00	0.70	15.96	-2.46	-8.34	-5.16	-26.77	-15.00	-0.05	0.18	0.00	0.00	10.76	0.00	1.89	-12.25	0.00	15.08	0.00	0.00	1.42	0.00	0.00	10.81	0.49	0.00	14.65	0.00	0.00	1.32	0.00	0.00	6.60	6.58	0.00	17.71	0.00	0.00	0.21	0.00	0.00	18.61	6.68	0.00	20.36	0.00	0.00	0.00	0.00
0.00	0.00	0.00	0.70	15.92	-2.47	-8.46	-5.23	-26.84	-15.00	-0.05	0.18	0.00	0.00	10.74	0.00	1.93	-12.23	0.00	15.08	0.00	0.00	1.43	0.00	0.00	10.85	0.49	0.00	14.66	0.00	0.00	1.32	0.00	0.00	6.69	6.55	0.00	17.71	0.00	0.00	0.23	0.00	0.00	18.64	6.67	0.00	20.33	0.00	0.00	0.00	0.00
0.00	0.00	0.00	0.70	15.83	-2.46	-8.50	-5.25	-26.92	-15.00	-0.05	0.20	0.00	0.00	10.73	0.00	1.93	-12.17	0.00	15.08	0.00	0.00	1.40	0.00	0.00	10.92	0.49	0.00	14.69	0.00	0.00	1.29	0.00	0.00	6.69	6.49	0.00	17.71	0.00	0.00	0.21	0.00	0.00	18.67	6.67	0.00	20.33	0.00	0.00	0.00	0.00
0.00	0.00	0.00	0.69	15.75	-2.44	-8.75	-5.40	-26.94	-15.00	-0.06	0.24	0.00	0.00	10.70	0.00	1.99	-12.13	0.00	15.08	0.00	0.00	1.42	0.00	0.00	10.91	0.52	0.00	14.72	0.00	0.00	1.34	0.00	0.00	6.76	6.43	0.00	17.66	0.00	0.00	0.23	0.00	0.00	18.68	6.64	0.00	20.33	0.00	0.00	0.00	0.00
0.00	0.00	0.00	0.69	15.64	-2.45	-8.78	-5.41	-26.98	-15.00	-0.07	0.25	0.00	0.00	10.70	0.00	2.05	-12.09	0.00	15.09	0.00	0.00	1.40	0.00	0.00	10.98	0.49	0.00	14.70	0.00	0.00	1.29	0.00	0.00	6.77	6.41	0.00	17.68	0.00	0.00	0.25	0.00	0.00	18.75	6.63	0.00	20.33	0.00	0.00	0.00	0.00
0.00	0.00	0.00	0.68	15.58	-2.45	-8.82	-5.43	-26.99	-15.00	-0.08	0.30	0.00	0.00	10.68	0.00	2.11	-12.10	0.00	15.08	0.00	0.00	1.43	0.00	0.00	11.08	0.49	0.00	14.72	0.00	0.00	1.29	0.00	0.00	6.86	6.40	0.00	17.64	0.00	0.00	0.23	0.00	0.00	18.76	6.64	0.00	20.26	0.00	0.00	0.00	0.00
0.00	0.00	0.00	0.68	15.55	-2.46	-8.96	-5.52	-27.00	-15.00	-0.09	0.32	0.00	0.00	10.68	0.00	2.14	-12.06	0.00	15.09	0.00	0.00	1.43	0.00	0.00	11.06	0.48	0.00	14.75	0.00	0.00	1.32	0.00	0.00	6.90	6.37	0.00	17.64	0.00	0.00	0.21	0.00	0.00	18.80	6.63	0.00	20.31	0.00	0.00	0.00	0.00
0.00	0.00	0.00	0.67	15.52	-2.42	-9.03	-5.56	-27.04	-15.00	-0.09	0.35	0.00	0.00	10.69	0.00	2.14	-12.03	0.00	15.08	0.00	0.00	1.43	0.00	0.00	11.04	0.47	0.00	14.77	0.00	0.00	1.34	0.00	0.00	6.86	6.34	0.00	17.68	0.00	0.00	0.21	0.00	0.00	18.76	6.64	0.00	20.31	0.00	0.00	0.00	0.00
0.00	0.00	0.00	0.68	15.45	-2.45	-8.98	-5.53	-27.02	-15.00	-0.11	0.41	0.00	0.00	10.66	0.00	2.19	-11.99	0.00	15.11	0.00	0.00	1.40	0.00	0.00	11.12	0.47	0.00	14.77	0.00	0.00	1.32	0.00	0.00	6.89	6.32	0.00	17.66	0.00	0.00	0.21	0.00	0.00	18.82	6.59	0.00	20.29	0.00	0.00	0.00	0.00
0.00	0.00	0.00	0.67	15.38	-2.44	-9.03	-5.56	-27.02	-15.00	-0.13	0.49	0.00	0.00	10.67	0.00	2.20	-11.98	0.00	15.13	0.00	0.00	1.43	0.00	0.00	11.14	0.48	0.00	14.77	0.00	0.00	1.34	0.00	0.00	6.93	6.29	0.00	17.71	0.00	0.00	0.27	0.00	0.00	18.86	6.60	0.00	20.31	0.00	0.00	0.00	0.00
0.00	0.00	0.00	0.67	15.38	-2.44	-9.03	-5.56	-27.02	-15.00	-0.13	0.49	0.00	0.00	10.67	0.00	2.20	-11.98	0.00	15.13	0.00	0.00	1.43	0.00	0.00	11.14	0.48	0.00	14.77	0.00	0.00	1.34	0.00	0.00	6.93	6.29	0.00	17.71	0.00	0.00	0.27	0.00	0.00	18.86	6.60	0.00	20.31	0.00	0.00	0.00	0.00
0.00	0.00	0.00	0.67	15.29	-2.46	-9.11	-5.60	-27.05	-15.00	-0.14	0.52	0.00	0.00	10.64	0.00	2.26	-11.93	0.00	15.11	0.00	0.00	1.44	0.00	0.00	11.19	0.49	0.00	14.80	0.00	0.00	1.34	0.00	0.00	6.97	6.25	0.00	17.71	0.00	0.00	0.23	0.00	0.00	18.93	6.55	0.00	20.28	0.00	0.00	0.00	0.00
0.00	0.00	0.00	0.67	15.20	-2.47	-9.20	-5.66	-27.03	-15.00	-0.15	0.56	0.00	0.00	10.64	0.00	2.33	-11.91	0.00	15.13	0.00	0.00	1.46	0.00	0.00	11.22	0.49	0.00	14.80	0.00	0.00	1.34	0.00	0.00	7.01	6.21	0.00	17.66	0.00	0.00	0.25	0.00	0.00	18.99	6.54	0.00	20.29	0.00	0.00	0.00	0.00
0.00	0.00	0.00	0.67	15.14	-2.48	-9.25	-5.69	-27.03	-15.00	-0.16	0.60	0.00	0.00	10.64	0.00	2.38	-11.86	0.00	15.15	0.00	0.00	1.46	0.00	0.00	11.27	0.48	0.00	14.83	0.00	0.00	1.29	0.00	0.00	7.02	6.19	0.00	17.71	0.00	0.00	0.25	0.00	0.00	19.04	6.50	0.00	20.26	0.00	0.00	0.00	0.00
0.00	0.00	0.00	0.67	15.15	-2.48	-9.41	-5.78	-27.04	-15.00	-0.16	0.61	0.00	0.00	10.66	0.00	2.33	-11.89	0.00	15.15	0.00	0.00	1.43	0.00	0.00	11.26	0.48	0.00	14.83	0.00	0.00	1.29	0.00	0.00	7.00	6.21	0.00	17.71	0.00	0.00	0.27	0.00	0.00	19.02	6.53	0.00	20.29	0.00	0.00	0.00	0.00
0.00	0.00	0.00	0.67	15.18	-2.47	-9.46	-5.81	-27.05	-15.00	-0.17	0.62	0.00	0.00	10.67	0.00	2.42	-11.94	0.00	15.15	0.00	0.00	1.43	0.00	0.00	11.24	0.52	0.00	14.83	0.00	0.00	1.32	0.00	0.00	7.01	6.21	0.00	17.71	0.00	0.00	0.25	0.00	0.00	18.99	6.51	0.00	20.28	0.00	0.00	0.00	0.00
0.00	0.00	0.00	0.67	15.18	-2.48	-9.34	-5.75	-26.97	-15.00	-0.17	0.65	0.00	0.00	10.66	0.00	2.42	-11.94	0.00	15.13	0.00	0.00	1.43	0.00	0.00	11.31	0.53	0.00	14.85	0.00	0.00	1.32	0.00	0.00	7.06	6.19	0.00	17.73	0.00	0.00	0.23	0.00	0.00	19.02	6.52	0.00	20.29	0.00	0.00	0.00	0.00
0.00	0.00	0.00	0.67	15.19	-2.46	-9.40	-5.78	-27.00	-15.00	-0.17	0.62	0.00	0.00	10.67	0.00	2.47	-11.97	0.00	15.13	0.00	0.00	1.39	0.00	0.00	11.35	0.48	0.00	14.84	0.00	0.00	1.29	0.00	0.00	7.04	6.26	0.00	17.71	0.00	0.00	0.25	0.00	0.00	19.04	6.52	0.00	20.28	0.00	0.00	0.00	0.00
0.00	0.00	0.00	0.67	15.18	-2.46	-9.35	-5.76	-26.94	-15.00	-0.18	0.67	0.00	0.00	10.66	0.00	2.50	-11.94	0.00	15.13	0.00	0.00	1.40	0.00	0.00	11.35	0.50	0.00	14.88	0.00	0.00	1.29	0.00	0.00	7.05	6.21	0.00	17.71	0.00	0.00	0.23	0.00	0.00	19.04	6.50	0.00	20.29	0.00	0.00	0.00	0.00
0.00	0.00	0.00	0.67	15.22	-2.46	-9.32	-5.74	-26.95	-15.00	-0.17	0.63	0.00	0.00	10.68	0.00	2.38	-11.96	0.00	15.15	0.00	0.00	1.40	0.00	0.00	11.26	0.51	0.00	14.88	0.00	0.00	1.32	0.00	0.00	7.00	6.26	0.00	17.73	0.00	0.00	0.23	0.00	0.00	19.03	6.51	0.00	20.31	0.00	0.00	0.00	0.00
0.00	0.00	0.00	0.67	15.21	-2.45	-9.48	-5.84	-26.92	-15.00	-0.17	0.63	0.00	0.00	10.66	0.00	2.43	-11.95	0.00	15.15	0.00	0.00	1.42	0.00	0.00	11.30	0.49	0.00	14.88	0.00	0.00	1.29	0.00	0.00	7.02	6.25	0.00	17.73	0.00	0.00	0.23	0.00	0.00	19.03	6.51	0.00	20.29	0.00	0.00	0.00	0.00
0.00	0.00	0.00	0.67	15.20	-2.47	-9.47	-5.83	-26.94	-15.00	-0.17	0.65	0.00	0.00	10.65	0.00	2.43	-11.99	0.00	15.16	0.00	0.00	1.39	0.00	0.00	11.30	0.53	0.00	14.87	0.00	0.00	1.29	0.00	0.00	7.00	6.25	0.00	17.73	0.00	0.00	0.21	0.00	0.00	19.05	6.51	0.00	20.28	0.00	0.00	0.00	0.00
0.00	0.00	0.00	0.67	15.17	-2.45	-9.38	-5.78	-26.92	-15.00	-0.17	0.63	0.00	0.00	10.65	0.00	2.50	-11.96	0.00	15.15	0.00	0.00	1.39	0.00	0.00	11.36	0.51	0.00	14.85	0.00	0.00	1.32	0.00	0.00	7.05	6.25	0.00	17.71	0.00	0.00	0.23	0.00	0.00	19.05	6.49	0.00	20.29	0.00	0.00	0.00	0.00
0.00	0.00	0.00	0.66	15.22	-2.43	-9.34	-5.76	-26.92	-15.00	-0.17	0.62	0.00	0.00	10.66	0.00	2.46	-11.99	0.00	15.15	0.00	0.00	1.40	0.00	0.00	11.31	0.52	0.00	14.88	0.00	0.00	1.29	0.00	0.00	6.99	6.29	0.00	17.73	0.00	0.00	0.25	0.00	0.00	19.05	6.49	0.00	20.29	0.00	0.00	0.00	0.00
0.00	0.00	0.00	0.66	15.24	-2.44	-9.40	-5.80	-26.86	-15.00	-0.17	0.65	0.00	0.00	10.66	0.00	2.43	-11.98	0.00	15.13	0.00	0.00	1.40	0.00	0.00	11.29	0.50	0.00	14.88	0.00	0.00	1.29	0.00	0.00	7.02	6.29	0.00	17.73	0.00	0.00	0.23	0.00	0.00	19.04	6.51	0.00	20.28	0.00	0.00	0.00	0.00
0.00	0.00	0.00	0.67	15.31	-2.44	-9.37	-5.78	-26.83	-15.00	-0.16	0.61	0.00	0.00	10.68	0.00	2.43	-12.02	0.00	15.11	0.00	0.00	1.40	0.00	0.00	11.24	0.53	0.00	14.88	0.00	0.00	1.29	0.00	0.00	6.98	6.27	0.00	17.71	0.00	0.00	0.23	0.00	0.00	18.99	6.55	0.00	20.29	0.00	0.00	0.00	0.00
0.00	0.00	0.00	0.67	15.32	-2.43	-9.28	-5.73	-26.84	-15.00	-0.18	0.66	0.00	0.00	10.66	0.00	2.43	-12.01	0.00	15.11	0.00	0.00	1.39	0.00	0.00	11.24	0.50	0.00	14.91	0.00	0.00	1.29	0.00	0.00	6.95	6.32	0.00	17.71	0.00	0.00	0.25	0.00	0.00	19.00	6.52	0.00	20.33	0.00	0.00	0.00	0.00
